<?xml version="1.0" encoding="UTF-8"?>
<!DOCTYPE svg PUBLIC "-//W3C//DTD SVG 1.1//EN" "http://www.w3.org/Graphics/SVG/1.1/DTD/svg11.dtd">
<svg xmlns="http://www.w3.org/2000/svg" version="1.1" width="512px" height="512px" style="shape-rendering:geometricPrecision; text-rendering:geometricPrecision; image-rendering:optimizeQuality; fill-rule:evenodd; clip-rule:evenodd" xmlns:xlink="http://www.w3.org/1999/xlink">
<g><path style="opacity:0.068" fill="#030202" d="M 243.5,43.5 C 257.255,42.056 270.255,44.3893 282.5,50.5C 285.736,53.2806 288.736,56.2806 291.5,59.5C 294.156,65.0855 296.823,70.7522 299.5,76.5C 310.776,80.2775 321.776,84.6108 332.5,89.5C 333.324,93.0655 335.657,95.0655 339.5,95.5C 342.455,99.2918 346.121,102.125 350.5,104C 353.25,109.25 356.917,113.75 361.5,117.5C 364.251,121.252 366.585,125.252 368.5,129.5C 369.519,130.687 370.686,131.687 372,132.5C 374.642,139.781 377.809,146.781 381.5,153.5C 397.823,154.333 414.156,154.833 430.5,155C 450.094,155.476 463.094,164.976 469.5,183.5C 470.833,223.833 470.833,264.167 469.5,304.5C 465.629,317.608 457.296,326.608 444.5,331.5C 428.848,332.499 413.181,332.833 397.5,332.5C 398.172,335.644 399.172,338.644 400.5,341.5C 404.846,341.334 409.179,341.501 413.5,342C 420.211,344.689 426.544,347.855 432.5,351.5C 436.145,357.456 439.311,363.789 442,370.5C 442.83,376.528 442.664,382.528 441.5,388.5C 439.167,394.752 436.333,400.752 433,406.5C 428.312,410.929 422.812,413.929 416.5,415.5C 379.173,416.5 341.839,416.833 304.5,416.5C 305.028,419.667 305.695,422.834 306.5,426C 305.114,432.903 303.447,439.737 301.5,446.5C 298.886,448.512 297.219,451.178 296.5,454.5C 294.993,456.69 292.993,458.024 290.5,458.5C 290.024,460.993 288.69,462.993 286.5,464.5C 281.813,467.274 276.813,469.607 271.5,471.5C 260.833,472.833 250.167,472.833 239.5,471.5C 236.515,470.272 233.515,469.106 230.5,468C 228.059,465.938 225.392,464.104 222.5,462.5C 221.147,461.476 220.48,460.143 220.5,458.5C 218.857,458.52 217.524,457.853 216.5,456.5C 207.879,444.643 204.546,431.31 206.5,416.5C 169.161,416.833 131.827,416.5 94.5,415.5C 88.1885,413.929 82.6885,410.929 78,406.5C 74.6666,400.752 71.8333,394.752 69.5,388.5C 68.3364,382.528 68.1697,376.528 69,370.5C 71.6888,363.789 74.8555,357.456 78.5,351.5C 84.4556,347.855 90.7889,344.689 97.5,342C 101.821,341.501 106.154,341.334 110.5,341.5C 112.972,336.518 114.972,331.184 116.5,325.5C 117.167,287.5 117.833,249.5 118.5,211.5C 120.653,189.226 125.153,167.56 132,146.5C 136.248,137.525 141.081,128.858 146.5,120.5C 149.637,118.197 151.804,115.197 153,111.5C 157.833,106.667 162.667,101.833 167.5,97C 175.905,90.8042 184.905,85.6376 194.5,81.5C 200.931,79.4911 207.264,77.4911 213.5,75.5C 215.165,65.2909 220.165,56.9576 228.5,50.5C 233.561,47.7963 238.561,45.463 243.5,43.5 Z"/></g>
<g><path style="opacity:1" fill="#f4c435" d="M 276.5,54.5 C 276.831,56.3224 277.498,57.9891 278.5,59.5C 275.5,59.5 272.5,59.5 269.5,59.5C 269.439,57.4078 268.439,55.9078 266.5,55C 259.167,54.3333 251.833,54.3333 244.5,55C 239.697,57.5899 235.697,61.0899 232.5,65.5C 230.955,66.4519 229.288,66.7852 227.5,66.5C 227.5,65.5 227.5,64.5 227.5,63.5C 227.157,61.5168 227.824,60.1834 229.5,59.5C 232.5,59.1667 234.167,57.5 234.5,54.5C 236.591,53.1346 238.924,52.4679 241.5,52.5C 241.5,51.5 241.5,50.5 241.5,49.5C 250.833,49.5 260.167,49.5 269.5,49.5C 269.5,50.5 269.5,51.5 269.5,52.5C 272.076,52.4679 274.409,53.1346 276.5,54.5 Z"/></g>
<g><path style="opacity:1" fill="#fac013" d="M 278.5,59.5 C 279.5,59.5 280.5,59.5 281.5,59.5C 284.009,65.2028 285.342,71.2028 285.5,77.5C 268.574,75.5184 251.574,75.0184 234.5,76C 231.895,77.0213 229.228,77.8546 226.5,78.5C 225.5,78.1667 224.833,77.5 224.5,76.5C 224.77,72.7236 225.77,69.3902 227.5,66.5C 229.288,66.7852 230.955,66.4519 232.5,65.5C 235.697,61.0899 239.697,57.5899 244.5,55C 251.833,54.3333 259.167,54.3333 266.5,55C 268.439,55.9078 269.439,57.4078 269.5,59.5C 272.5,59.5 275.5,59.5 278.5,59.5 Z"/></g>
<g><path style="opacity:0.416" fill="#ae8b26" d="M 234.5,54.5 C 234.167,57.5 232.5,59.1667 229.5,59.5C 229.833,56.5 231.5,54.8333 234.5,54.5 Z"/></g>
<g><path style="opacity:0.416" fill="#ac8a24" d="M 276.5,54.5 C 279.5,54.8333 281.167,56.5 281.5,59.5C 280.5,59.5 279.5,59.5 278.5,59.5C 277.498,57.9891 276.831,56.3224 276.5,54.5 Z"/></g>
<g><path style="opacity:1" fill="#ebb315" d="M 281.5,59.5 C 283.176,60.1834 283.843,61.5168 283.5,63.5C 284.5,63.5 285.5,63.5 286.5,63.5C 287.925,69.054 288.591,74.7206 288.5,80.5C 266.494,77.8934 244.494,77.8934 222.5,80.5C 222.409,74.7206 223.075,69.054 224.5,63.5C 225.5,63.5 226.5,63.5 227.5,63.5C 227.5,64.5 227.5,65.5 227.5,66.5C 225.77,69.3902 224.77,72.7236 224.5,76.5C 224.833,77.5 225.5,78.1667 226.5,78.5C 229.228,77.8546 231.895,77.0213 234.5,76C 251.574,75.0184 268.574,75.5184 285.5,77.5C 285.342,71.2028 284.009,65.2028 281.5,59.5 Z"/></g>
<g><path style="opacity:0.997" fill="#f1a22e" d="M 288.5,80.5 C 288.5,81.5 288.5,82.5 288.5,83.5C 295.689,84.0495 302.689,85.3828 309.5,87.5C 314.167,88.8333 318.833,90.1667 323.5,91.5C 323.5,92.5 323.5,93.5 323.5,94.5C 328.263,94.5994 331.263,96.9327 332.5,101.5C 336.239,101.928 339.573,103.261 342.5,105.5C 343.5,109.167 345.833,111.5 349.5,112.5C 350.833,115.167 352.167,117.833 353.5,120.5C 350.5,120.167 348.833,118.5 348.5,115.5C 346.5,115.5 344.5,115.5 342.5,115.5C 341.271,113.259 339.605,111.259 337.5,109.5C 331.697,105.818 326.03,101.985 320.5,98C 315.077,96.7901 310.41,94.2901 306.5,90.5C 301.21,89.1385 295.877,88.1385 290.5,87.5C 290.5,86.5 290.5,85.5 290.5,84.5C 271.208,82.7726 251.875,82.2726 232.5,83C 224.738,85.7639 216.738,87.5973 208.5,88.5C 202.942,92.2088 196.942,94.8755 190.5,96.5C 190.5,97.5 190.5,98.5 190.5,99.5C 188.712,99.2148 187.045,99.5481 185.5,100.5C 182.103,102.929 178.437,104.929 174.5,106.5C 172.785,111.242 169.785,114.908 165.5,117.5C 164.548,119.045 164.215,120.712 164.5,122.5C 163.5,122.5 162.5,122.5 161.5,122.5C 159.5,122.5 157.5,122.5 155.5,122.5C 155.704,126.281 154.037,128.614 150.5,129.5C 152.739,126.573 154.072,123.239 154.5,119.5C 158.167,118.5 160.5,116.167 161.5,112.5C 165.167,111.5 167.5,109.167 168.5,105.5C 172.167,104.5 174.5,102.167 175.5,98.5C 179.302,96.6004 183.302,95.2671 187.5,94.5C 187.48,92.857 188.147,91.5237 189.5,90.5C 193.274,88.5164 197.274,87.5164 201.5,87.5C 201.5,86.5 201.5,85.5 201.5,84.5C 208.44,82.8839 215.44,81.5506 222.5,80.5C 244.494,77.8934 266.494,77.8934 288.5,80.5 Z"/></g>
<g><path style="opacity:0.778" fill="#c4872b" d="M 288.5,80.5 C 295.44,82.1161 302.44,83.4494 309.5,84.5C 309.5,85.5 309.5,86.5 309.5,87.5C 302.689,85.3828 295.689,84.0495 288.5,83.5C 288.5,82.5 288.5,81.5 288.5,80.5 Z"/></g>
<g><path style="opacity:1" fill="#f99808" d="M 342.5,115.5 C 345.2,121.576 348.2,127.576 351.5,133.5C 352.689,134.429 354.022,134.762 355.5,134.5C 355.02,138.306 356.02,141.639 358.5,144.5C 359.689,145.429 361.022,145.762 362.5,145.5C 362.5,147.167 362.5,148.833 362.5,150.5C 363.5,150.5 364.5,150.5 365.5,150.5C 365.11,153.466 365.777,156.132 367.5,158.5C 337.225,160.775 306.891,161.775 276.5,161.5C 272.284,143.198 261.284,137.531 243.5,144.5C 241.5,147.833 238.833,150.5 235.5,152.5C 234.167,211.833 234.167,271.167 235.5,330.5C 237.007,332.69 239.007,334.024 241.5,334.5C 241.48,336.143 242.147,337.476 243.5,338.5C 252.646,342.634 261.312,341.967 269.5,336.5C 271.312,336.771 272.978,337.438 274.5,338.5C 277.113,340.623 279.446,342.956 281.5,345.5C 227.837,346.5 174.171,346.833 120.5,346.5C 119.858,342.138 121.358,338.805 125,336.5C 125.372,332.682 126.206,329.015 127.5,325.5C 127.5,323.167 127.5,320.833 127.5,318.5C 129.494,280.515 130.161,242.181 129.5,203.5C 129.5,202.833 129.5,202.167 129.5,201.5C 129.5,200.167 129.5,198.833 129.5,197.5C 130.5,197.5 131.5,197.5 132.5,197.5C 132.5,192.833 132.5,188.167 132.5,183.5C 133.833,183.5 135.167,183.5 136.5,183.5C 139.383,172.394 142.383,161.394 145.5,150.5C 146.5,150.5 147.5,150.5 148.5,150.5C 149.081,146.753 150.081,143.086 151.5,139.5C 155.105,133.952 158.438,128.285 161.5,122.5C 162.5,122.5 163.5,122.5 164.5,122.5C 164.215,120.712 164.548,119.045 165.5,117.5C 169.785,114.908 172.785,111.242 174.5,106.5C 178.437,104.929 182.103,102.929 185.5,100.5C 187.045,99.5481 188.712,99.2148 190.5,99.5C 190.5,98.5 190.5,97.5 190.5,96.5C 196.942,94.8755 202.942,92.2088 208.5,88.5C 216.738,87.5973 224.738,85.7639 232.5,83C 251.875,82.2726 271.208,82.7726 290.5,84.5C 290.5,85.5 290.5,86.5 290.5,87.5C 295.877,88.1385 301.21,89.1385 306.5,90.5C 310.41,94.2901 315.077,96.7901 320.5,98C 326.03,101.985 331.697,105.818 337.5,109.5C 339.605,111.259 341.271,113.259 342.5,115.5 Z"/></g>
<g><path style="opacity:1" fill="#ee9a24" d="M 342.5,115.5 C 344.5,115.5 346.5,115.5 348.5,115.5C 348.833,118.5 350.5,120.167 353.5,120.5C 355.383,122.45 357.383,124.45 359.5,126.5C 360.452,128.045 360.785,129.712 360.5,131.5C 361.5,131.5 362.5,131.5 363.5,131.5C 364.833,136.167 366.167,140.833 367.5,145.5C 368.5,145.5 369.5,145.5 370.5,145.5C 371.657,150.882 372.99,156.216 374.5,161.5C 335.004,162.499 295.337,162.832 255.5,162.5C 262.313,161.509 269.313,161.175 276.5,161.5C 306.891,161.775 337.225,160.775 367.5,158.5C 365.777,156.132 365.11,153.466 365.5,150.5C 364.5,150.5 363.5,150.5 362.5,150.5C 362.5,148.833 362.5,147.167 362.5,145.5C 361.022,145.762 359.689,145.429 358.5,144.5C 356.02,141.639 355.02,138.306 355.5,134.5C 354.022,134.762 352.689,134.429 351.5,133.5C 348.2,127.576 345.2,121.576 342.5,115.5 Z"/></g>
<g><path style="opacity:0.99" fill="#f09919" d="M 161.5,122.5 C 158.438,128.285 155.105,133.952 151.5,139.5C 150.081,143.086 149.081,146.753 148.5,150.5C 147.5,150.5 146.5,150.5 145.5,150.5C 142.383,161.394 139.383,172.394 136.5,183.5C 135.167,183.5 133.833,183.5 132.5,183.5C 132.5,188.167 132.5,192.833 132.5,197.5C 131.5,197.5 130.5,197.5 129.5,197.5C 130.184,186.416 131.517,175.416 133.5,164.5C 134.5,164.5 135.5,164.5 136.5,164.5C 137.476,158.086 138.809,151.753 140.5,145.5C 141.5,145.5 142.5,145.5 143.5,145.5C 144.833,140.833 146.167,136.167 147.5,131.5C 149.179,131.715 150.179,131.048 150.5,129.5C 154.037,128.614 155.704,126.281 155.5,122.5C 157.5,122.5 159.5,122.5 161.5,122.5 Z"/></g>
<g><path style="opacity:1" fill="#f6f6f6" d="M 374.5,161.5 C 397.167,161.5 419.833,161.5 442.5,161.5C 442.5,162.5 442.5,163.5 442.5,164.5C 446.223,164.534 449.223,165.867 451.5,168.5C 452.64,171.025 453.307,173.692 453.5,176.5C 455.322,176.831 456.989,177.498 458.5,178.5C 458.5,179.167 458.5,179.833 458.5,180.5C 459.81,200.518 460.477,220.685 460.5,241C 460.465,261.611 459.799,282.111 458.5,302.5C 458.5,303.167 458.5,303.833 458.5,304.5C 455.167,305.833 451.833,307.167 448.5,308.5C 446.967,314.012 443.301,316.345 437.5,315.5C 437.5,316.5 437.5,317.5 437.5,318.5C 376.833,318.5 316.167,318.5 255.5,318.5C 255.5,267.833 255.5,217.167 255.5,166.5C 255.5,165.167 255.5,163.833 255.5,162.5C 295.337,162.832 335.004,162.499 374.5,161.5 Z"/></g>
<g><path style="opacity:1" fill="#cb6f11" d="M 253.5,166.5 C 254.167,166.5 254.833,166.5 255.5,166.5C 255.5,217.167 255.5,267.833 255.5,318.5C 255.5,319.167 255.5,319.833 255.5,320.5C 253.504,269.511 252.838,218.178 253.5,166.5 Z"/></g>
<g><path style="opacity:0.847" fill="#b5b5b5" d="M 451.5,168.5 C 452.5,168.5 453.5,168.5 454.5,168.5C 455.833,171.833 457.167,175.167 458.5,178.5C 456.989,177.498 455.322,176.831 453.5,176.5C 453.307,173.692 452.64,171.025 451.5,168.5 Z"/></g>
<g><path style="opacity:0.431" fill="#b3b3b3" d="M 458.5,180.5 C 459.5,180.5 460.5,180.5 461.5,180.5C 461.5,221.167 461.5,261.833 461.5,302.5C 460.5,302.5 459.5,302.5 458.5,302.5C 459.799,282.111 460.465,261.611 460.5,241C 460.477,220.685 459.81,200.518 458.5,180.5 Z"/></g>
<g><path style="opacity:1" fill="#dcdcdc" d="M 372.5,204.5 C 349.253,202.605 325.919,201.939 302.5,202.5C 302.5,229.5 302.5,256.5 302.5,283.5C 301.502,256.338 301.169,229.005 301.5,201.5C 324.176,201.167 346.843,201.5 369.5,202.5C 370.602,203.176 371.602,203.842 372.5,204.5 Z"/></g>
<g><path style="opacity:1" fill="#b8b8b8" d="M 372.5,204.5 C 374.589,206.254 376.922,207.587 379.5,208.5C 380.201,210.908 381.201,213.242 382.5,215.5C 383.5,238.157 383.833,260.824 383.5,283.5C 378.167,283.5 372.833,283.5 367.5,283.5C 368.044,263.078 367.378,242.744 365.5,222.5C 363.263,221.551 360.929,220.884 358.5,220.5C 345.542,218.519 332.209,217.852 318.5,218.5C 318.5,240.167 318.5,261.833 318.5,283.5C 313.167,283.5 307.833,283.5 302.5,283.5C 302.5,256.5 302.5,229.5 302.5,202.5C 325.919,201.939 349.253,202.605 372.5,204.5 Z"/></g>
<g><path style="opacity:1" fill="#d0d0d0" d="M 416.5,202.5 C 411.167,202.5 405.833,202.5 400.5,202.5C 400.5,229.5 400.5,256.5 400.5,283.5C 399.5,283.5 398.5,283.5 397.5,283.5C 397.5,256.167 397.5,228.833 397.5,201.5C 404.022,201.177 410.355,201.51 416.5,202.5 Z"/></g>
<g><path style="opacity:1" fill="#b7b6b6" d="M 416.5,202.5 C 416.5,229.5 416.5,256.5 416.5,283.5C 411.167,283.5 405.833,283.5 400.5,283.5C 400.5,256.5 400.5,229.5 400.5,202.5C 405.833,202.5 411.167,202.5 416.5,202.5 Z"/></g>
<g><path style="opacity:1" fill="#dfdfdf" d="M 358.5,220.5 C 346.167,220.5 333.833,220.5 321.5,220.5C 321.5,241.5 321.5,262.5 321.5,283.5C 320.5,283.5 319.5,283.5 318.5,283.5C 318.5,261.833 318.5,240.167 318.5,218.5C 332.209,217.852 345.542,218.519 358.5,220.5 Z"/></g>
<g><path style="opacity:0.361" fill="#a86709" d="M 129.5,201.5 C 129.5,202.167 129.5,202.833 129.5,203.5C 127.506,241.485 126.839,279.819 127.5,318.5C 127.5,320.833 127.5,323.167 127.5,325.5C 126.778,326.551 125.778,327.218 124.5,327.5C 126.421,285.559 127.087,243.559 126.5,201.5C 127.5,201.5 128.5,201.5 129.5,201.5 Z"/></g>
<g><path style="opacity:1" fill="#bcbcbc" d="M 334.5,234.5 C 340.833,234.5 347.167,234.5 353.5,234.5C 353.5,250.833 353.5,267.167 353.5,283.5C 347.167,283.5 340.833,283.5 334.5,283.5C 334.5,267.167 334.5,250.833 334.5,234.5 Z"/></g>
<g><path style="opacity:1" fill="#d97106" d="M 253.5,166.5 C 252.838,218.178 253.504,269.511 255.5,320.5C 256.872,322.089 258.539,323.422 260.5,324.5C 265.792,325.495 271.125,325.828 276.5,325.5C 275.498,327.011 274.831,328.678 274.5,330.5C 273.344,332.387 271.677,333.721 269.5,334.5C 266.284,329.536 261.617,327.536 255.5,328.5C 255.5,327.5 255.5,326.5 255.5,325.5C 254.5,325.5 253.5,325.5 252.5,325.5C 252.509,323.692 252.009,322.025 251,320.5C 250.333,270.833 250.333,221.167 251,171.5C 251.757,169.685 252.59,168.019 253.5,166.5 Z"/></g>
<g><path style="opacity:1" fill="#ed7c06" d="M 276.5,161.5 C 269.313,161.175 262.313,161.509 255.5,162.5C 255.5,163.833 255.5,165.167 255.5,166.5C 254.833,166.5 254.167,166.5 253.5,166.5C 252.59,168.019 251.757,169.685 251,171.5C 250.333,221.167 250.333,270.833 251,320.5C 252.009,322.025 252.509,323.692 252.5,325.5C 253.5,325.5 254.5,325.5 255.5,325.5C 255.5,326.5 255.5,327.5 255.5,328.5C 261.617,327.536 266.284,329.536 269.5,334.5C 269.5,335.167 269.5,335.833 269.5,336.5C 261.312,341.967 252.646,342.634 243.5,338.5C 242.147,337.476 241.48,336.143 241.5,334.5C 239.007,334.024 237.007,332.69 235.5,330.5C 234.167,271.167 234.167,211.833 235.5,152.5C 238.833,150.5 241.5,147.833 243.5,144.5C 261.284,137.531 272.284,143.198 276.5,161.5 Z"/></g>
<g><path style="opacity:0.816" fill="#dd8708" d="M 129.5,203.5 C 130.161,242.181 129.494,280.515 127.5,318.5C 126.839,279.819 127.506,241.485 129.5,203.5 Z"/></g>
<g><path style="opacity:1" fill="#c8c7c7" d="M 458.5,304.5 C 457.5,308.167 455.167,310.5 451.5,311.5C 450.263,316.067 447.263,318.401 442.5,318.5C 440.833,318.5 439.167,318.5 437.5,318.5C 437.5,317.5 437.5,316.5 437.5,315.5C 443.301,316.345 446.967,314.012 448.5,308.5C 451.833,307.167 455.167,305.833 458.5,304.5 Z"/></g>
<g><path style="opacity:1" fill="#c5c5c5" d="M 255.5,318.5 C 316.167,318.5 376.833,318.5 437.5,318.5C 419.864,320.487 401.864,321.153 383.5,320.5C 340.833,320.5 298.167,320.5 255.5,320.5C 255.5,319.833 255.5,319.167 255.5,318.5 Z"/></g>
<g><path style="opacity:0.518" fill="#7b7b7a" d="M 437.5,318.5 C 439.167,318.5 440.833,318.5 442.5,318.5C 442.5,319.5 442.5,320.5 442.5,321.5C 423.167,321.5 403.833,321.5 384.5,321.5C 383.833,321.5 383.5,321.167 383.5,320.5C 401.864,321.153 419.864,320.487 437.5,318.5 Z"/></g>
<g><path style="opacity:1" fill="#af6c14" d="M 255.5,320.5 C 298.167,320.5 340.833,320.5 383.5,320.5C 383.5,321.167 383.833,321.5 384.5,321.5C 386.075,323.114 386.741,325.114 386.5,327.5C 349.949,325.54 313.282,324.873 276.5,325.5C 271.125,325.828 265.792,325.495 260.5,324.5C 258.539,323.422 256.872,322.089 255.5,320.5 Z"/></g>
<g><path style="opacity:1" fill="#d27f05" d="M 276.5,325.5 C 313.282,324.873 349.949,325.54 386.5,327.5C 387.865,329.591 388.532,331.924 388.5,334.5C 386.409,333.135 384.076,332.468 381.5,332.5C 381.5,331.167 381.5,329.833 381.5,328.5C 345.828,328.909 310.161,329.576 274.5,330.5C 274.831,328.678 275.498,327.011 276.5,325.5 Z"/></g>
<g><path style="opacity:1" fill="#e48a05" d="M 127.5,325.5 C 126.206,329.015 125.372,332.682 125,336.5C 121.358,338.805 119.858,342.138 120.5,346.5C 174.171,346.833 227.837,346.5 281.5,345.5C 279.446,342.956 277.113,340.623 274.5,338.5C 272.978,337.438 271.312,336.771 269.5,336.5C 269.5,335.833 269.5,335.167 269.5,334.5C 271.677,333.721 273.344,332.387 274.5,330.5C 310.161,329.576 345.828,328.909 381.5,328.5C 381.5,329.833 381.5,331.167 381.5,332.5C 384.076,332.468 386.409,333.135 388.5,334.5C 388.821,336.048 389.821,336.715 391.5,336.5C 392.138,340.757 393.471,344.757 395.5,348.5C 302.167,348.5 208.833,348.5 115.5,348.5C 117.529,344.757 118.862,340.757 119.5,336.5C 120.5,336.5 121.5,336.5 122.5,336.5C 122.29,333.248 122.956,330.248 124.5,327.5C 125.778,327.218 126.778,326.551 127.5,325.5 Z"/></g>
<g><path style="opacity:1" fill="#f5f5f4" d="M 115.5,348.5 C 208.833,348.5 302.167,348.5 395.5,348.5C 404.278,348.162 412.944,348.829 421.5,350.5C 421.281,351.675 421.614,352.675 422.5,353.5C 426.992,355.908 429.658,359.574 430.5,364.5C 431.532,367.706 432.199,371.039 432.5,374.5C 432.016,378.562 431.349,382.562 430.5,386.5C 430.5,387.167 430.5,387.833 430.5,388.5C 428.395,389.987 426.728,391.987 425.5,394.5C 418.748,397.84 411.748,400.173 404.5,401.5C 302.502,402.5 200.502,402.833 98.5,402.5C 97.1667,402.5 95.8333,402.5 94.5,402.5C 92.4349,399.095 89.7683,396.095 86.5,393.5C 85.6143,392.675 85.281,391.675 85.5,390.5C 83.6776,390.169 82.0109,389.502 80.5,388.5C 80.5,387.833 80.5,387.167 80.5,386.5C 79.651,382.562 78.9844,378.562 78.5,374.5C 78.801,371.039 79.4676,367.706 80.5,364.5C 81.3417,359.574 84.0084,355.908 88.5,353.5C 89.3857,352.675 89.719,351.675 89.5,350.5C 98.0556,348.829 106.722,348.162 115.5,348.5 Z"/></g>
<g><path style="opacity:0.398" fill="#a5a5a5" d="M 80.5,364.5 C 79.4676,367.706 78.801,371.039 78.5,374.5C 78.9844,378.562 79.651,382.562 80.5,386.5C 79.5,386.5 78.5,386.5 77.5,386.5C 77.5,379.167 77.5,371.833 77.5,364.5C 78.5,364.5 79.5,364.5 80.5,364.5 Z"/></g>
<g><path style="opacity:0.394" fill="#9e9e9e" d="M 430.5,364.5 C 431.5,364.5 432.5,364.5 433.5,364.5C 433.5,371.833 433.5,379.167 433.5,386.5C 432.5,386.5 431.5,386.5 430.5,386.5C 431.349,382.562 432.016,378.562 432.5,374.5C 432.199,371.039 431.532,367.706 430.5,364.5 Z"/></g>
<g><path style="opacity:1" fill="#bcbcbc" d="M 80.5,388.5 C 82.0109,389.502 83.6776,390.169 85.5,390.5C 85.281,391.675 85.6143,392.675 86.5,393.5C 89.7683,396.095 92.4349,399.095 94.5,402.5C 92.2627,401.551 89.9294,400.884 87.5,400.5C 87.1667,397.5 85.5,395.833 82.5,395.5C 82.1156,393.071 81.449,390.737 80.5,388.5 Z"/></g>
<g><path style="opacity:1" fill="#c5c4c4" d="M 430.5,388.5 C 428.833,396.167 424.167,400.833 416.5,402.5C 362.735,403.812 308.901,404.479 255,404.5C 202.496,404.5 150.329,403.833 98.5,402.5C 200.502,402.833 302.502,402.5 404.5,401.5C 411.748,400.173 418.748,397.84 425.5,394.5C 426.728,391.987 428.395,389.987 430.5,388.5 Z"/></g>
<g><path style="opacity:0.517" fill="#7f7f7f" d="M 94.5,402.5 C 95.8333,402.5 97.1667,402.5 98.5,402.5C 150.329,403.833 202.496,404.5 255,404.5C 308.901,404.479 362.735,403.812 416.5,402.5C 416.423,403.75 415.756,404.583 414.5,405C 308.5,405.667 202.5,405.667 96.5,405C 95.244,404.583 94.5774,403.75 94.5,402.5 Z"/></g>
<g><path style="opacity:1" fill="#efe05a" d="M 297.5,421.5 C 296.222,421.782 295.222,422.449 294.5,423.5C 268.167,423.5 241.833,423.5 215.5,423.5C 215.5,425.167 215.5,426.833 215.5,428.5C 213.598,425.663 212.931,422.329 213.5,418.5C 241.5,418.5 269.5,418.5 297.5,418.5C 297.5,419.5 297.5,420.5 297.5,421.5 Z"/></g>
<g><path style="opacity:1" fill="#f4e13b" d="M 294.5,423.5 C 294.136,428.279 293.136,432.946 291.5,437.5C 287.447,439.206 285.447,442.206 285.5,446.5C 280.684,446.4 278.351,448.733 278.5,453.5C 276.167,453.5 273.833,453.5 271.5,453.5C 271.5,454.5 271.5,455.5 271.5,456.5C 269.517,456.157 268.183,456.824 267.5,458.5C 259.5,458.5 251.5,458.5 243.5,458.5C 242.833,458.5 242.167,458.5 241.5,458.5C 241.631,457.624 241.298,456.957 240.5,456.5C 236.92,454.542 233.253,452.875 229.5,451.5C 228.167,451.5 227.5,450.833 227.5,449.5C 225.637,446.431 224.303,443.098 223.5,439.5C 219.678,438.82 218.011,436.487 218.5,432.5C 217.5,432.5 216.5,432.5 215.5,432.5C 215.5,431.167 215.5,429.833 215.5,428.5C 215.5,426.833 215.5,425.167 215.5,423.5C 241.833,423.5 268.167,423.5 294.5,423.5 Z"/></g>
<g><path style="opacity:1" fill="#c8b830" d="M 297.5,421.5 C 296.886,428.647 295.553,435.647 293.5,442.5C 292.325,442.281 291.325,442.614 290.5,443.5C 286.833,447.5 283.167,451.5 279.5,455.5C 276.316,457.11 272.983,458.11 269.5,458.5C 268.833,458.5 268.167,458.5 267.5,458.5C 268.183,456.824 269.517,456.157 271.5,456.5C 271.5,455.5 271.5,454.5 271.5,453.5C 273.833,453.5 276.167,453.5 278.5,453.5C 278.351,448.733 280.684,446.4 285.5,446.5C 285.447,442.206 287.447,439.206 291.5,437.5C 293.136,432.946 294.136,428.279 294.5,423.5C 295.222,422.449 296.222,421.782 297.5,421.5 Z"/></g>
<g><path style="opacity:1" fill="#b4a62b" d="M 215.5,432.5 C 216.5,432.5 217.5,432.5 218.5,432.5C 218.011,436.487 219.678,438.82 223.5,439.5C 224.303,443.098 225.637,446.431 227.5,449.5C 223.304,448.048 220.971,445.048 220.5,440.5C 219.5,440.5 218.5,440.5 217.5,440.5C 217.307,437.692 216.64,435.025 215.5,432.5 Z"/></g>
<g><path style="opacity:0.914" fill="#a49728" d="M 229.5,451.5 C 233.253,452.875 236.92,454.542 240.5,456.5C 241.298,456.957 241.631,457.624 241.5,458.5C 238.017,458.11 234.684,457.11 231.5,455.5C 230.147,454.476 229.48,453.143 229.5,451.5 Z"/></g>
<g><path style="opacity:0.505" fill="#6f661b" d="M 241.5,458.5 C 242.167,458.5 242.833,458.5 243.5,458.5C 247.107,459.824 251.107,460.491 255.5,460.5C 259.893,460.491 263.893,459.824 267.5,458.5C 268.167,458.5 268.833,458.5 269.5,458.5C 269.5,459.5 269.5,460.5 269.5,461.5C 260.167,461.5 250.833,461.5 241.5,461.5C 241.5,460.5 241.5,459.5 241.5,458.5 Z"/></g>
<g><path style="opacity:0.98" fill="#b9aa2c" d="M 243.5,458.5 C 251.5,458.5 259.5,458.5 267.5,458.5C 263.893,459.824 259.893,460.491 255.5,460.5C 251.107,460.491 247.107,459.824 243.5,458.5 Z"/></g>
</svg>
