<?xml version="1.0" encoding="UTF-8"?>
<!DOCTYPE svg PUBLIC "-//W3C//DTD SVG 1.1//EN" "http://www.w3.org/Graphics/SVG/1.1/DTD/svg11.dtd">
<svg xmlns="http://www.w3.org/2000/svg" version="1.1" width="512px" height="512px" style="shape-rendering:geometricPrecision; text-rendering:geometricPrecision; image-rendering:optimizeQuality; fill-rule:evenodd; clip-rule:evenodd" xmlns:xlink="http://www.w3.org/1999/xlink">
<g><path style="opacity:0.076" fill="#000000" d="M 372.5,65.5 C 424.698,66.8393 459.198,92.1727 476,141.5C 481.14,162.147 480.14,182.481 473,202.5C 472.667,270.5 472.333,338.5 472,406.5C 473.34,419.824 469.173,430.991 459.5,440C 455.469,442.455 451.136,444.121 446.5,445C 320.833,445.667 195.167,445.667 69.5,445C 55,442.5 46.5,434 44,419.5C 43.3333,331.167 43.3333,242.833 44,154.5C 46.4961,140.004 54.9961,131.504 69.5,129C 141.167,128.667 212.833,128.333 284.5,128C 302.372,90.9521 331.705,70.1187 372.5,65.5 Z"/></g>
<g><path style="opacity:0.995" fill="#fda668" d="M 397.5,71.5 C 397.833,71.5 398.167,71.5 398.5,71.5C 408.014,74.8998 417.348,78.8998 426.5,83.5C 426.833,83.5 427.167,83.5 427.5,83.5C 429.732,85.963 432.398,87.963 435.5,89.5C 437.754,90.1237 439.421,91.457 440.5,93.5C 443.101,97.7706 446.434,101.437 450.5,104.5C 451.08,106.749 452.413,108.415 454.5,109.5C 457.579,112.65 459.913,116.317 461.5,120.5C 463.205,126.118 465.039,131.785 467,137.5C 467.495,139.473 467.662,141.473 467.5,143.5C 452.345,101.358 422.345,79.0251 377.5,76.5C 337.639,78.3539 309.139,97.3539 292,133.5C 289.633,139.463 287.8,145.463 286.5,151.5C 286.729,144.203 288.062,137.203 290.5,130.5C 292.794,127.63 294.128,124.297 294.5,120.5C 296.087,116.317 298.421,112.65 301.5,109.5C 307.806,102.86 314.139,96.193 320.5,89.5C 324.221,87.6465 327.554,85.3131 330.5,82.5C 333.599,82.9077 335.933,81.741 337.5,79C 356.71,71.176 376.71,68.676 397.5,71.5 Z"/></g>
<g><path style="opacity:0.114" fill="#c8af9d" d="M 397.5,71.5 C 376.71,68.676 356.71,71.176 337.5,79C 335.933,81.741 333.599,82.9077 330.5,82.5C 338.716,76.262 348.05,72.4286 358.5,71C 371.68,68.8766 384.68,69.0432 397.5,71.5 Z"/></g>
<g><path style="opacity:1" fill="#fe6c05" d="M 467.5,143.5 C 470.105,153.285 471.105,163.285 470.5,173.5C 469.551,182.935 467.217,191.935 463.5,200.5C 437.983,246.254 399.65,263.087 348.5,251C 311.433,236.116 290.433,208.949 285.5,169.5C 285.254,163.441 285.587,157.441 286.5,151.5C 287.8,145.463 289.633,139.463 292,133.5C 309.139,97.3539 337.639,78.3539 377.5,76.5C 422.345,79.0251 452.345,101.358 467.5,143.5 Z"/></g>
<g><path style="opacity:0.212" fill="#d0b3a0" d="M 398.5,71.5 C 405.705,72.9568 412.705,75.1235 419.5,78C 422.336,79.391 424.669,81.2243 426.5,83.5C 417.348,78.8998 408.014,74.8998 398.5,71.5 Z"/></g>
<g><path style="opacity:0.6" fill="#d9bdaa" d="M 427.5,83.5 C 430.921,84.5389 433.588,86.5389 435.5,89.5C 432.398,87.963 429.732,85.963 427.5,83.5 Z"/></g>
<g><path style="opacity:0.271" fill="#cbb0a0" d="M 330.5,82.5 C 327.554,85.3131 324.221,87.6465 320.5,89.5C 323.057,86.2078 326.391,83.8744 330.5,82.5 Z"/></g>
<g><path style="opacity:0.486" fill="#dabaa5" d="M 440.5,93.5 C 444.566,96.5628 447.899,100.229 450.5,104.5C 446.434,101.437 443.101,97.7706 440.5,93.5 Z"/></g>
<g><path style="opacity:0.502" fill="#dbbba6" d="M 320.5,89.5 C 314.139,96.193 307.806,102.86 301.5,109.5C 306.455,101.544 312.789,94.8773 320.5,89.5 Z"/></g>
<g><path style="opacity:0.541" fill="#deb9a1" d="M 450.5,104.5 C 452.587,105.585 453.92,107.251 454.5,109.5C 452.413,108.415 451.08,106.749 450.5,104.5 Z"/></g>
<g><path style="opacity:0.604" fill="#ceaf99" d="M 294.5,120.5 C 294.128,124.297 292.794,127.63 290.5,130.5C 290.752,126.673 292.085,123.34 294.5,120.5 Z"/></g>
<g><path style="opacity:1" fill="#fffdfc" d="M 322.5,127.5 C 344.169,127.333 365.836,127.5 387.5,128C 393.272,130.106 397.438,133.939 400,139.5C 400.5,159.164 400.667,178.831 400.5,198.5C 395.167,198.5 389.833,198.5 384.5,198.5C 384.667,181.83 384.5,165.163 384,148.5C 382.74,145.572 380.573,143.739 377.5,143C 364.591,142.178 351.758,142.345 339,143.5C 338.5,161.83 338.333,180.164 338.5,198.5C 333.167,198.5 327.833,198.5 322.5,198.5C 322.5,174.833 322.5,151.167 322.5,127.5 Z"/></g>
<g><path style="opacity:1" fill="#fffefd" d="M 415.5,127.5 C 420.833,127.5 426.167,127.5 431.5,127.5C 431.5,151.167 431.5,174.833 431.5,198.5C 426.167,198.5 420.833,198.5 415.5,198.5C 415.5,174.833 415.5,151.167 415.5,127.5 Z"/></g>
<g><path style="opacity:0.999" fill="#f5f5f5" d="M 68.5,131.5 C 140.5,131.5 212.5,131.5 284.5,131.5C 284.579,132.93 284.246,134.264 283.5,135.5C 211.836,136.333 140.169,136.833 68.5,137C 60.862,138.637 55.6954,143.137 53,150.5C 52.5172,149.552 52.3505,148.552 52.5,147.5C 54.1667,138.5 59.5,133.167 68.5,131.5 Z"/></g>
<g><path style="opacity:1" fill="#ececec" d="M 284.5,131.5 C 285.5,131.5 286.5,131.5 287.5,131.5C 271.362,179.255 283.362,218.421 323.5,249C 361.325,271.507 398.659,270.84 435.5,247C 446.153,238.521 455.153,228.687 462.5,217.5C 462.5,282.833 462.5,348.167 462.5,413.5C 460.973,421.537 456.306,427.037 448.5,430C 321.5,430.667 194.5,430.667 67.5,430C 59.2253,427.393 54.0587,421.893 52,413.5C 51.1676,324.666 51.3343,235.999 52.5,147.5C 52.3505,148.552 52.5172,149.552 53,150.5C 55.6954,143.137 60.862,138.637 68.5,137C 140.169,136.833 211.836,136.333 283.5,135.5C 284.246,134.264 284.579,132.93 284.5,131.5 Z"/></g>
<g><path style="opacity:0.835" fill="#daa37d" d="M 461.5,120.5 C 464.793,126.369 467.126,132.702 468.5,139.5C 468.676,142.727 469.343,145.727 470.5,148.5C 471.72,156.982 471.72,165.315 470.5,173.5C 471.105,163.285 470.105,153.285 467.5,143.5C 467.662,141.473 467.495,139.473 467,137.5C 465.039,131.785 463.205,126.118 461.5,120.5 Z"/></g>
<g><path style="opacity:0.088" fill="#766b66" d="M 468.5,139.5 C 470.118,142.171 470.785,145.171 470.5,148.5C 469.343,145.727 468.676,142.727 468.5,139.5 Z"/></g>
<g><path style="opacity:1" fill="#dddddc" d="M 68.5,131.5 C 142.331,130.501 216.331,130.167 290.5,130.5C 288.062,137.203 286.729,144.203 286.5,151.5C 285.587,157.441 285.254,163.441 285.5,169.5C 286.707,204.2 302.04,230.7 331.5,249C 368.72,267.493 404.053,264.493 437.5,240C 447.577,230.93 455.744,220.43 462,208.5C 462.498,211.482 462.665,214.482 462.5,217.5C 455.153,228.687 446.153,238.521 435.5,247C 398.659,270.84 361.325,271.507 323.5,249C 283.362,218.421 271.362,179.255 287.5,131.5C 286.5,131.5 285.5,131.5 284.5,131.5C 212.5,131.5 140.5,131.5 68.5,131.5 Z"/></g>
<g><path style="opacity:1" fill="#fffefe" d="M 353.5,157.5 C 358.833,157.5 364.167,157.5 369.5,157.5C 369.5,171.167 369.5,184.833 369.5,198.5C 364.167,198.5 358.833,198.5 353.5,198.5C 353.5,184.833 353.5,171.167 353.5,157.5 Z"/></g>
<g><path style="opacity:1" fill="#cccccc" d="M 122.5,220.5 C 164.501,220.333 206.501,220.5 248.5,221C 262.821,228.965 265.987,240.132 258,254.5C 254.686,257.818 250.852,260.318 246.5,262C 205.833,262.667 165.167,262.667 124.5,262C 110.895,257.3 105.728,247.8 109,233.5C 112.101,227.563 116.601,223.23 122.5,220.5 Z"/></g>
<g><path style="opacity:1" fill="#d2cdca" d="M 285.5,169.5 C 290.433,208.949 311.433,236.116 348.5,251C 399.65,263.087 437.983,246.254 463.5,200.5C 463.833,271.669 463.499,342.669 462.5,413.5C 462.5,348.167 462.5,282.833 462.5,217.5C 462.665,214.482 462.498,211.482 462,208.5C 455.744,220.43 447.577,230.93 437.5,240C 404.053,264.493 368.72,267.493 331.5,249C 302.04,230.7 286.707,204.2 285.5,169.5 Z"/></g>
<g><path style="opacity:1" fill="#cccccc" d="M 121.5,308.5 C 211.167,308.333 300.834,308.5 390.5,309C 403.76,314.035 408.26,323.535 404,337.5C 401.091,343.732 396.258,347.898 389.5,350C 300.5,350.667 211.5,350.667 122.5,350C 107.066,344.623 102.233,334.123 108,318.5C 111.56,313.756 116.06,310.423 121.5,308.5 Z"/></g>
</svg>
